<svg width="20" height="20" viewBox="0 0 20 20" fill="none" xmlns="http://www.w3.org/2000/svg">
<path d="M9.76 0C15.417 0 20 4.477 20 10C20 15.523 15.416 20 9.76 20C6.569 20 3.618 18.563 1.69 16.154C1.63595 16.0867 1.59598 16.0093 1.57246 15.9262C1.54894 15.8432 1.54234 15.7563 1.55307 15.6706C1.5638 15.585 1.59163 15.5024 1.6349 15.4277C1.67818 15.3531 1.73603 15.2879 1.805 15.236C1.94565 15.129 2.12243 15.0809 2.2979 15.102C2.47336 15.1231 2.63372 15.2117 2.745 15.349C3.58843 16.3972 4.65709 17.2421 5.87168 17.8208C7.08627 18.3995 8.41559 18.6973 9.761 18.692C14.676 18.692 18.661 14.8 18.661 10C18.661 5.2 14.676 1.308 9.761 1.308C8.4348 1.30283 7.12398 1.59213 5.92315 2.15502C4.72232 2.71791 3.66142 3.54035 2.817 4.563C2.70396 4.69904 2.54236 4.78569 2.36648 4.80454C2.19061 4.8234 2.01431 4.77299 1.875 4.664C1.80663 4.61123 1.74956 4.54524 1.70721 4.46997C1.66486 4.39469 1.63808 4.31167 1.62847 4.22583C1.61886 4.14 1.62662 4.05311 1.65127 3.97033C1.67593 3.88756 1.71699 3.81059 1.772 3.744C3.703 1.394 6.614 0 9.76 0ZM10.306 6.862L13.013 9.569C13.275 9.831 13.28 10.249 13.024 10.505L10.38 13.15C10.3179 13.2111 10.2444 13.2593 10.1636 13.2919C10.0828 13.3244 9.99631 13.3407 9.90921 13.3396C9.8221 13.3386 9.73606 13.3204 9.65605 13.2859C9.57603 13.2515 9.50362 13.2016 9.443 13.139C9.38051 13.0783 9.33065 13.0059 9.2963 12.9258C9.26195 12.8457 9.24379 12.7597 9.24286 12.6726C9.24193 12.5855 9.25825 12.499 9.29089 12.4183C9.32352 12.3375 9.37182 12.264 9.433 12.202L10.98 10.654L0.67 10.655C0.582909 10.6563 0.496417 10.6404 0.415512 10.6081C0.334606 10.5759 0.260887 10.5279 0.198604 10.467C0.136321 10.4061 0.0867061 10.3335 0.0526197 10.2534C0.0185334 10.1732 0.000649822 10.0871 0 10C0 9.639 0.3 9.346 0.67 9.346H10.938L9.38 7.787C9.31751 7.72631 9.26765 7.65385 9.2333 7.5738C9.19895 7.49375 9.18079 7.40769 9.17986 7.32058C9.17893 7.23348 9.19525 7.14705 9.22789 7.06628C9.26052 6.98552 9.30882 6.91201 9.37 6.85C9.43204 6.78919 9.50547 6.74122 9.58609 6.70885C9.6667 6.67648 9.75292 6.66034 9.83978 6.66136C9.92665 6.66238 10.0125 6.68054 10.0923 6.7148C10.1721 6.74906 10.2444 6.79874 10.305 6.861" fill="black"/>
</svg>
