<svg width="683" height="683" viewBox="0 0 683 683" fill="none" xmlns="http://www.w3.org/2000/svg">
<path d="M260.484 649.442L33.5601 422.515C-11.1867 377.771 -11.1867 305.226 33.5601 260.479L260.481 33.5598C305.228 -11.1866 377.774 -11.1866 422.519 33.5598L649.44 260.479C694.187 305.226 694.187 377.771 649.44 422.515L422.519 649.442C377.774 694.186 305.228 694.186 260.484 649.442" fill="white"/>
<mask id="mask0_370_9" style="mask-type:luminance" maskUnits="userSpaceOnUse" x="0" y="0" width="683" height="684">
<path d="M260.484 649.448L33.5601 422.519C-11.1867 377.774 -11.1867 305.228 33.5601 260.481L260.481 33.5601C305.228 -11.1867 377.774 -11.1867 422.519 33.5601L649.44 260.481C694.187 305.228 694.187 377.774 649.44 422.519L422.519 649.448C377.774 694.192 305.228 694.192 260.484 649.448" fill="white"/>
</mask>
<g mask="url(#mask0_370_9)">
<path d="M659.662 272.273C656.585 268.242 653.32 264.313 649.632 260.625L569.619 180.612C410.062 251.316 92.766 265.958 22.3355 268.322C22.6087 267.996 -0.17449 310.477 0.0477976 309.716C89.3567 314.114 525.336 331.511 659.662 272.273ZM86.2259 205.589C171.293 202.989 361.258 187.621 499.307 106.001L421.846 30.5841C376.593 -16.1795 301.722 -13.1612 256.469 33.605L86.2259 205.589ZM256.434 649.728C301.178 694.473 374.6 700.686 424.979 650.885L504.95 570.915C371.7 492.798 179.919 484.352 92.5946 485.854L256.434 649.728ZM-6.61816 363.77L23.0345 420.86C112.11 423.785 384.239 437.384 573.827 498.471L649.632 422.663C655.488 416.778 660.691 410.278 665.15 403.275C536.41 340.451 87.6159 359.514 2.50636 363.767" fill="#F4922E"/>
</g>
</svg>
